<?xml version="1.0" encoding="UTF-8" standalone="no"?>
<svg width="220mm" height="220mm" viewBox="-10 -10 220 220" version="1.1" id="svg3225" xmlns="http://www.w3.org/2000/svg" xmlns:svg="http://www.w3.org/2000/svg">
<g>
	<rect style="fill:#b1b1b1;stroke:#454545;stroke-width:0.2" width="20" height="20" x="0" y="0" rx="0.5" ry="0.5"/>
	<rect style="fill:#ffffff;stroke:#818181;stroke-width:0.15" width="19" x="0.5" y="0.2" rx="0.5" ry="0.5" height="14.6"/>
	<g style="fill:none;stroke:#f5a5a5;stroke-width:0.05">
		<path d="M 0,5.25 H 20"/>
		<path d="M 0,9 H 20"/>
		<path d="M 0,12.75 H 20"/>
		<path d="M 4,0 V 20"/>
		<path d="M 10,0 V 20"/>
		<path d="M 16,0 V 20"/>
		<path d="M 0,18.75 H 20"/>
	</g>
	<g style="fill:#000000;stroke:none;text-align:center;text-anchor:middle">
		<g style="font-size:4.0px">
			<text x="4" y="5"><tspan>À</tspan></text>
			<text x="10" y="5"><tspan>B</tspan></text>
			<text x="16" y="5"><tspan>Ç</tspan></text>
			<text x="4" y="9"><tspan>D</tspan></text>
			<text x="10" y="9"><tspan>Ê</tspan></text>
			<text x="16" y="9"><tspan>F</tspan></text>
			<text x="4" y="13"><tspan>g</tspan></text>
			<text x="10" y="13"><tspan>H</tspan></text>
			<text x="16" y="13"><tspan>Ï</tspan></text>
		</g>
		<g style="font-size:5px">
			<text x="4" y="5.25"><!--UL--></text>
			<text x="16" y="5.25"><!--UR--></text>
			<text x="10" y="9"><!--CC--></text>
			<text x="4" y="12.75"><!--DL--></text>
			<text x="16" y="12.75"><!--DR--></text>
		</g>
		<g style="font-size:4px">
			<text x="10" y="18.75"><!--SC--></text>
		</g>
	</g>
</g>
<g transform="translate(21,0)">
	<rect style="fill:#b1b1b1;stroke:#454545;stroke-width:0.2" width="20" height="20" x="0" y="0" rx="0.5" ry="0.5"/>
	<rect style="fill:#ffffff;stroke:#818181;stroke-width:0.15" width="19" x="0.5" y="0.2" rx="0.5" ry="0.5" height="14.6"/>
	<g style="fill:none;stroke:#f5a5a5;stroke-width:0.05">
		<path d="M 0,5.25 H 20"/>
		<path d="M 0,9 H 20"/>
		<path d="M 0,12.75 H 20"/>
		<path d="M 4,0 V 20"/>
		<path d="M 10,0 V 20"/>
		<path d="M 16,0 V 20"/>
		<path d="M 0,18.75 H 20"/>
	</g>
	<g style="fill:#000000;stroke:none;text-align:center;text-anchor:middle">
		<g style="font-size:5px">
			<text x="4" y="5.25"><!--UL--></text>
			<text x="16" y="5.25"><!--UR--></text>
			<text x="10" y="9"><!--CC--></text>
			<text x="4" y="12.75"><!--DL--></text>
			<text x="16" y="12.75"><!--DR--></text>
		</g>
		<g style="font-size:4px">
			<text x="10" y="18.75"><!--SC--></text>
		</g>
	</g>
</g>
</svg>
